<svg width="10" height="10" viewBox="0 0 10 10" fill="none" xmlns="http://www.w3.org/2000/svg">
<g clip-path="url(#clip0)">
<!-- Schwartz P: TPMS-inspired wavy grid pattern -->
<path d="M1.0 3.0 Q2.5 1.5 4.0 3.0 Q5.5 4.5 7.0 3.0 Q8.0 2.0 9.0 3.0" stroke="#262E30" stroke-width="0.5" fill="none"/>
<path d="M1.0 5.0 Q2.5 3.5 4.0 5.0 Q5.5 6.5 7.0 5.0 Q8.0 4.0 9.0 5.0" stroke="#262E30" stroke-width="0.5" fill="none"/>
<path d="M1.0 7.0 Q2.5 5.5 4.0 7.0 Q5.5 8.5 7.0 7.0 Q8.0 6.0 9.0 7.0" stroke="#262E30" stroke-width="0.5" fill="none"/>
<path d="M3.0 1.0 Q1.5 2.5 3.0 4.0 Q4.5 5.5 3.0 7.0 Q2.0 8.0 3.0 9.0" stroke="#ACACAC" stroke-width="0.5" fill="none"/>
<path d="M5.0 1.0 Q3.5 2.5 5.0 4.0 Q6.5 5.5 5.0 7.0 Q4.0 8.0 5.0 9.0" stroke="#ACACAC" stroke-width="0.5" fill="none"/>
<path d="M7.0 1.0 Q5.5 2.5 7.0 4.0 Q8.5 5.5 7.0 7.0 Q6.0 8.0 7.0 9.0" stroke="#ACACAC" stroke-width="0.5" fill="none"/>
<rect x="0.75" y="0.75" width="8.5" height="8.5" rx="0.25" stroke="#262E30" stroke-width="0.5"/>
</g>
<defs>
<clipPath id="clip0">
<rect width="10" height="10" fill="white"/>
</clipPath>
</defs>
</svg>